<mxfile host="app.diagrams.net" agent="Mozilla/5.0 (Windows NT 10.0; Win64; x64) AppleWebKit/537.36 (KHTML, like Gecko) Chrome/128.0.0.0 Safari/537.36" version="24.7.13">
  <diagram name="Página-1" id="LLqz1F6iKCHMz_iNZBXD">
    <mxGraphModel dx="1050" dy="565" grid="1" gridSize="10" guides="1" tooltips="1" connect="1" arrows="1" fold="1" page="1" pageScale="1" pageWidth="827" pageHeight="1169" math="0" shadow="0">
      <root>
        <mxCell id="0" />
        <mxCell id="1" parent="0" />
        <mxCell id="LZZ5D7f-CGiOrj9U7sB5-1" value="Criação de interfaces&lt;div&gt;figma&lt;br&gt;&lt;/div&gt;" style="rounded=1;whiteSpace=wrap;html=1;" vertex="1" parent="1">
          <mxGeometry x="180" y="80" width="120" height="60" as="geometry" />
        </mxCell>
        <mxCell id="LZZ5D7f-CGiOrj9U7sB5-2" value="" style="endArrow=classic;html=1;rounded=0;exitX=0.5;exitY=1;exitDx=0;exitDy=0;entryX=0.5;entryY=0;entryDx=0;entryDy=0;" edge="1" parent="1" source="LZZ5D7f-CGiOrj9U7sB5-1" target="LZZ5D7f-CGiOrj9U7sB5-4">
          <mxGeometry width="50" height="50" relative="1" as="geometry">
            <mxPoint x="410" y="150" as="sourcePoint" />
            <mxPoint x="560" y="200" as="targetPoint" />
            <Array as="points">
              <mxPoint x="240" y="160" />
              <mxPoint x="400" y="160" />
              <mxPoint x="560" y="160" />
            </Array>
          </mxGeometry>
        </mxCell>
        <mxCell id="LZZ5D7f-CGiOrj9U7sB5-3" value="" style="endArrow=classic;html=1;rounded=0;exitX=0.5;exitY=1;exitDx=0;exitDy=0;" edge="1" parent="1" source="LZZ5D7f-CGiOrj9U7sB5-1">
          <mxGeometry width="50" height="50" relative="1" as="geometry">
            <mxPoint x="390" y="320" as="sourcePoint" />
            <mxPoint x="240" y="190" as="targetPoint" />
            <Array as="points">
              <mxPoint x="240" y="160" />
            </Array>
          </mxGeometry>
        </mxCell>
        <mxCell id="LZZ5D7f-CGiOrj9U7sB5-15" style="edgeStyle=orthogonalEdgeStyle;rounded=0;orthogonalLoop=1;jettySize=auto;html=1;exitX=0.5;exitY=1;exitDx=0;exitDy=0;" edge="1" parent="1" source="LZZ5D7f-CGiOrj9U7sB5-4">
          <mxGeometry relative="1" as="geometry">
            <mxPoint x="560" y="400" as="targetPoint" />
          </mxGeometry>
        </mxCell>
        <mxCell id="LZZ5D7f-CGiOrj9U7sB5-4" value="Banco de dados de clientes" style="rounded=1;whiteSpace=wrap;html=1;" vertex="1" parent="1">
          <mxGeometry x="500" y="280" width="120" height="60" as="geometry" />
        </mxCell>
        <mxCell id="LZZ5D7f-CGiOrj9U7sB5-5" value="Home" style="rounded=1;whiteSpace=wrap;html=1;" vertex="1" parent="1">
          <mxGeometry x="180" y="190" width="120" height="60" as="geometry" />
        </mxCell>
        <mxCell id="LZZ5D7f-CGiOrj9U7sB5-6" value="Revisão de paginas e junção de componentes" style="rounded=1;whiteSpace=wrap;html=1;" vertex="1" parent="1">
          <mxGeometry y="340" width="120" height="60" as="geometry" />
        </mxCell>
        <mxCell id="LZZ5D7f-CGiOrj9U7sB5-8" value="Testes extensivos para bugs, e report" style="rounded=1;whiteSpace=wrap;html=1;" vertex="1" parent="1">
          <mxGeometry x="680" y="330" width="120" height="60" as="geometry" />
        </mxCell>
        <mxCell id="LZZ5D7f-CGiOrj9U7sB5-9" value="" style="endArrow=classic;html=1;rounded=0;exitX=0.5;exitY=1;exitDx=0;exitDy=0;" edge="1" parent="1" source="LZZ5D7f-CGiOrj9U7sB5-5">
          <mxGeometry width="50" height="50" relative="1" as="geometry">
            <mxPoint x="390" y="320" as="sourcePoint" />
            <mxPoint x="240" y="280" as="targetPoint" />
          </mxGeometry>
        </mxCell>
        <mxCell id="LZZ5D7f-CGiOrj9U7sB5-14" style="edgeStyle=orthogonalEdgeStyle;rounded=0;orthogonalLoop=1;jettySize=auto;html=1;exitX=0.5;exitY=1;exitDx=0;exitDy=0;" edge="1" parent="1" source="LZZ5D7f-CGiOrj9U7sB5-10">
          <mxGeometry relative="1" as="geometry">
            <mxPoint x="240" y="400" as="targetPoint" />
          </mxGeometry>
        </mxCell>
        <mxCell id="LZZ5D7f-CGiOrj9U7sB5-10" value="Pagina de Login" style="rounded=1;whiteSpace=wrap;html=1;" vertex="1" parent="1">
          <mxGeometry x="180" y="280" width="120" height="60" as="geometry" />
        </mxCell>
        <mxCell id="LZZ5D7f-CGiOrj9U7sB5-16" value="" style="endArrow=classic;html=1;rounded=0;entryX=1.023;entryY=0.39;entryDx=0;entryDy=0;entryPerimeter=0;" edge="1" parent="1" target="LZZ5D7f-CGiOrj9U7sB5-6">
          <mxGeometry width="50" height="50" relative="1" as="geometry">
            <mxPoint x="560" y="360" as="sourcePoint" />
            <mxPoint x="130" y="360" as="targetPoint" />
            <Array as="points">
              <mxPoint x="560" y="360" />
            </Array>
          </mxGeometry>
        </mxCell>
        <mxCell id="LZZ5D7f-CGiOrj9U7sB5-17" style="edgeStyle=orthogonalEdgeStyle;rounded=0;orthogonalLoop=1;jettySize=auto;html=1;exitX=0.5;exitY=1;exitDx=0;exitDy=0;" edge="1" parent="1" source="LZZ5D7f-CGiOrj9U7sB5-18">
          <mxGeometry relative="1" as="geometry">
            <mxPoint x="560" y="520" as="targetPoint" />
          </mxGeometry>
        </mxCell>
        <mxCell id="LZZ5D7f-CGiOrj9U7sB5-18" value="aumento do banco de dados para dados financeiros" style="rounded=1;whiteSpace=wrap;html=1;" vertex="1" parent="1">
          <mxGeometry x="500" y="400" width="120" height="60" as="geometry" />
        </mxCell>
        <mxCell id="LZZ5D7f-CGiOrj9U7sB5-20" value="Revisão de paginas e junção de componentes" style="rounded=1;whiteSpace=wrap;html=1;" vertex="1" parent="1">
          <mxGeometry y="460" width="120" height="60" as="geometry" />
        </mxCell>
        <mxCell id="LZZ5D7f-CGiOrj9U7sB5-22" style="edgeStyle=orthogonalEdgeStyle;rounded=0;orthogonalLoop=1;jettySize=auto;html=1;exitX=0.5;exitY=1;exitDx=0;exitDy=0;" edge="1" parent="1" source="LZZ5D7f-CGiOrj9U7sB5-23">
          <mxGeometry relative="1" as="geometry">
            <mxPoint x="240" y="520" as="targetPoint" />
          </mxGeometry>
        </mxCell>
        <mxCell id="LZZ5D7f-CGiOrj9U7sB5-23" value="Paginas de Carrinho, dados pessoais&amp;nbsp;" style="rounded=1;whiteSpace=wrap;html=1;" vertex="1" parent="1">
          <mxGeometry x="180" y="400" width="120" height="60" as="geometry" />
        </mxCell>
        <mxCell id="LZZ5D7f-CGiOrj9U7sB5-24" value="" style="endArrow=classic;html=1;rounded=0;entryX=1.023;entryY=0.39;entryDx=0;entryDy=0;entryPerimeter=0;" edge="1" parent="1" target="LZZ5D7f-CGiOrj9U7sB5-20">
          <mxGeometry width="50" height="50" relative="1" as="geometry">
            <mxPoint x="560" y="480" as="sourcePoint" />
            <mxPoint x="130" y="480" as="targetPoint" />
            <Array as="points">
              <mxPoint x="560" y="480" />
            </Array>
          </mxGeometry>
        </mxCell>
        <mxCell id="LZZ5D7f-CGiOrj9U7sB5-28" value="" style="endArrow=classic;html=1;rounded=0;entryX=0;entryY=0.5;entryDx=0;entryDy=0;" edge="1" parent="1" target="LZZ5D7f-CGiOrj9U7sB5-8">
          <mxGeometry width="50" height="50" relative="1" as="geometry">
            <mxPoint x="560" y="360" as="sourcePoint" />
            <mxPoint x="360" y="330" as="targetPoint" />
          </mxGeometry>
        </mxCell>
        <mxCell id="LZZ5D7f-CGiOrj9U7sB5-29" value="Resolução de bugs e aperfeiçoamento final&lt;div&gt;de login e banco de dados&lt;/div&gt;" style="rounded=1;whiteSpace=wrap;html=1;" vertex="1" parent="1">
          <mxGeometry x="340" y="400" width="120" height="60" as="geometry" />
        </mxCell>
        <mxCell id="LZZ5D7f-CGiOrj9U7sB5-30" value="" style="endArrow=classic;html=1;rounded=0;entryX=0.5;entryY=0;entryDx=0;entryDy=0;" edge="1" parent="1" target="LZZ5D7f-CGiOrj9U7sB5-29">
          <mxGeometry width="50" height="50" relative="1" as="geometry">
            <mxPoint x="400" y="360" as="sourcePoint" />
            <mxPoint x="360" y="310" as="targetPoint" />
          </mxGeometry>
        </mxCell>
        <mxCell id="LZZ5D7f-CGiOrj9U7sB5-35" value="Testes extensivos para bugs, e report" style="rounded=1;whiteSpace=wrap;html=1;" vertex="1" parent="1">
          <mxGeometry x="670" y="450" width="120" height="60" as="geometry" />
        </mxCell>
        <mxCell id="LZZ5D7f-CGiOrj9U7sB5-39" value="Funcionamento do GPS e implementação" style="rounded=1;whiteSpace=wrap;html=1;" vertex="1" parent="1">
          <mxGeometry x="500" y="520" width="120" height="60" as="geometry" />
        </mxCell>
        <mxCell id="LZZ5D7f-CGiOrj9U7sB5-40" value="Revisão de paginas e junção de componentes" style="rounded=1;whiteSpace=wrap;html=1;" vertex="1" parent="1">
          <mxGeometry y="610" width="120" height="60" as="geometry" />
        </mxCell>
        <mxCell id="LZZ5D7f-CGiOrj9U7sB5-42" style="edgeStyle=orthogonalEdgeStyle;rounded=0;orthogonalLoop=1;jettySize=auto;html=1;" edge="1" parent="1" source="LZZ5D7f-CGiOrj9U7sB5-43">
          <mxGeometry relative="1" as="geometry">
            <mxPoint x="240" y="700" as="targetPoint" />
            <Array as="points">
              <mxPoint x="240" y="680" />
            </Array>
          </mxGeometry>
        </mxCell>
        <mxCell id="LZZ5D7f-CGiOrj9U7sB5-43" value="Pagina para espera de entrega de pedidos" style="rounded=1;whiteSpace=wrap;html=1;" vertex="1" parent="1">
          <mxGeometry x="180" y="520" width="120" height="60" as="geometry" />
        </mxCell>
        <mxCell id="LZZ5D7f-CGiOrj9U7sB5-45" value="" style="endArrow=classic;html=1;rounded=0;entryX=0;entryY=0.5;entryDx=0;entryDy=0;" edge="1" parent="1" target="LZZ5D7f-CGiOrj9U7sB5-35">
          <mxGeometry width="50" height="50" relative="1" as="geometry">
            <mxPoint x="560" y="480" as="sourcePoint" />
            <mxPoint x="350" y="550" as="targetPoint" />
            <Array as="points">
              <mxPoint x="600" y="480" />
              <mxPoint x="650" y="480" />
            </Array>
          </mxGeometry>
        </mxCell>
        <mxCell id="LZZ5D7f-CGiOrj9U7sB5-46" value="Resolução de bugs e aperfeiçoamento das ultimas paginas feitas" style="rounded=1;whiteSpace=wrap;html=1;" vertex="1" parent="1">
          <mxGeometry x="340" y="520" width="120" height="60" as="geometry" />
        </mxCell>
        <mxCell id="LZZ5D7f-CGiOrj9U7sB5-49" value="" style="endArrow=classic;html=1;rounded=0;entryX=0.5;entryY=0;entryDx=0;entryDy=0;" edge="1" parent="1" target="LZZ5D7f-CGiOrj9U7sB5-46">
          <mxGeometry width="50" height="50" relative="1" as="geometry">
            <mxPoint x="400" y="480" as="sourcePoint" />
            <mxPoint x="360" y="490" as="targetPoint" />
          </mxGeometry>
        </mxCell>
        <mxCell id="LZZ5D7f-CGiOrj9U7sB5-50" value="" style="endArrow=classic;html=1;rounded=0;exitX=0.5;exitY=1;exitDx=0;exitDy=0;" edge="1" parent="1" source="LZZ5D7f-CGiOrj9U7sB5-39">
          <mxGeometry width="50" height="50" relative="1" as="geometry">
            <mxPoint x="290" y="540" as="sourcePoint" />
            <mxPoint x="560" y="700" as="targetPoint" />
          </mxGeometry>
        </mxCell>
        <mxCell id="LZZ5D7f-CGiOrj9U7sB5-51" value="Testes extensivos para bugs, e report" style="rounded=1;whiteSpace=wrap;html=1;" vertex="1" parent="1">
          <mxGeometry x="660" y="610" width="120" height="60" as="geometry" />
        </mxCell>
        <mxCell id="LZZ5D7f-CGiOrj9U7sB5-52" value="" style="endArrow=classic;startArrow=classic;html=1;rounded=0;exitX=1;exitY=0.5;exitDx=0;exitDy=0;entryX=0;entryY=0.5;entryDx=0;entryDy=0;" edge="1" parent="1" source="LZZ5D7f-CGiOrj9U7sB5-40" target="LZZ5D7f-CGiOrj9U7sB5-51">
          <mxGeometry width="50" height="50" relative="1" as="geometry">
            <mxPoint x="290" y="580" as="sourcePoint" />
            <mxPoint x="340" y="530" as="targetPoint" />
          </mxGeometry>
        </mxCell>
        <mxCell id="LZZ5D7f-CGiOrj9U7sB5-53" value="Interface para pessoas que trabalham na pizzaria" style="rounded=1;whiteSpace=wrap;html=1;" vertex="1" parent="1">
          <mxGeometry x="180" y="700" width="120" height="60" as="geometry" />
        </mxCell>
        <mxCell id="LZZ5D7f-CGiOrj9U7sB5-54" value="Sistema de gestão de fabricação" style="rounded=1;whiteSpace=wrap;html=1;" vertex="1" parent="1">
          <mxGeometry x="500" y="700" width="120" height="60" as="geometry" />
        </mxCell>
        <mxCell id="LZZ5D7f-CGiOrj9U7sB5-56" value="Pronto para implementação" style="rounded=1;whiteSpace=wrap;html=1;" vertex="1" parent="1">
          <mxGeometry x="340" y="950" width="120" height="60" as="geometry" />
        </mxCell>
        <mxCell id="LZZ5D7f-CGiOrj9U7sB5-57" value="" style="endArrow=classic;html=1;rounded=0;exitX=0.5;exitY=1;exitDx=0;exitDy=0;entryX=0;entryY=0.167;entryDx=0;entryDy=0;entryPerimeter=0;" edge="1" parent="1" source="LZZ5D7f-CGiOrj9U7sB5-53" target="LZZ5D7f-CGiOrj9U7sB5-56">
          <mxGeometry width="50" height="50" relative="1" as="geometry">
            <mxPoint x="290" y="910" as="sourcePoint" />
            <mxPoint x="340" y="860" as="targetPoint" />
            <Array as="points">
              <mxPoint x="240" y="960" />
            </Array>
          </mxGeometry>
        </mxCell>
        <mxCell id="LZZ5D7f-CGiOrj9U7sB5-59" value="Revisão de paginas e junção de componentes" style="rounded=1;whiteSpace=wrap;html=1;" vertex="1" parent="1">
          <mxGeometry y="770" width="120" height="60" as="geometry" />
        </mxCell>
        <mxCell id="LZZ5D7f-CGiOrj9U7sB5-60" value="Testes extensivos para bugs, e report" style="rounded=1;whiteSpace=wrap;html=1;" vertex="1" parent="1">
          <mxGeometry x="660" y="770" width="120" height="60" as="geometry" />
        </mxCell>
        <mxCell id="LZZ5D7f-CGiOrj9U7sB5-61" value="" style="endArrow=classic;startArrow=classic;html=1;rounded=0;exitX=1;exitY=0.5;exitDx=0;exitDy=0;entryX=0;entryY=0.5;entryDx=0;entryDy=0;" edge="1" parent="1" source="LZZ5D7f-CGiOrj9U7sB5-59" target="LZZ5D7f-CGiOrj9U7sB5-60">
          <mxGeometry width="50" height="50" relative="1" as="geometry">
            <mxPoint x="290" y="910" as="sourcePoint" />
            <mxPoint x="340" y="860" as="targetPoint" />
          </mxGeometry>
        </mxCell>
        <mxCell id="LZZ5D7f-CGiOrj9U7sB5-62" value="Resolução de bugs e aperfeiçoamento das ultimas paginas feitas" style="rounded=1;whiteSpace=wrap;html=1;" vertex="1" parent="1">
          <mxGeometry x="340" y="700" width="120" height="60" as="geometry" />
        </mxCell>
        <mxCell id="LZZ5D7f-CGiOrj9U7sB5-63" value="Resolução de bugs e aperfeiçoamento das ultimas paginas feitas" style="rounded=1;whiteSpace=wrap;html=1;" vertex="1" parent="1">
          <mxGeometry x="340" y="830" width="120" height="60" as="geometry" />
        </mxCell>
        <mxCell id="LZZ5D7f-CGiOrj9U7sB5-64" value="" style="endArrow=classic;html=1;rounded=0;entryX=0.5;entryY=0;entryDx=0;entryDy=0;" edge="1" parent="1" target="LZZ5D7f-CGiOrj9U7sB5-62">
          <mxGeometry width="50" height="50" relative="1" as="geometry">
            <mxPoint x="400" y="640" as="sourcePoint" />
            <mxPoint x="340" y="730" as="targetPoint" />
          </mxGeometry>
        </mxCell>
        <mxCell id="LZZ5D7f-CGiOrj9U7sB5-65" value="" style="endArrow=classic;html=1;rounded=0;entryX=0.5;entryY=0;entryDx=0;entryDy=0;" edge="1" parent="1" target="LZZ5D7f-CGiOrj9U7sB5-63">
          <mxGeometry width="50" height="50" relative="1" as="geometry">
            <mxPoint x="400" y="800" as="sourcePoint" />
            <mxPoint x="340" y="730" as="targetPoint" />
          </mxGeometry>
        </mxCell>
        <mxCell id="LZZ5D7f-CGiOrj9U7sB5-66" value="" style="endArrow=classic;html=1;rounded=0;" edge="1" parent="1">
          <mxGeometry width="50" height="50" relative="1" as="geometry">
            <mxPoint x="240" y="960" as="sourcePoint" />
            <mxPoint x="120" y="960" as="targetPoint" />
          </mxGeometry>
        </mxCell>
        <mxCell id="LZZ5D7f-CGiOrj9U7sB5-67" value="" style="endArrow=classic;html=1;rounded=0;exitX=0.5;exitY=1;exitDx=0;exitDy=0;" edge="1" parent="1" source="LZZ5D7f-CGiOrj9U7sB5-54">
          <mxGeometry width="50" height="50" relative="1" as="geometry">
            <mxPoint x="290" y="1060" as="sourcePoint" />
            <mxPoint x="470" y="960" as="targetPoint" />
            <Array as="points">
              <mxPoint x="560" y="960" />
            </Array>
          </mxGeometry>
        </mxCell>
        <mxCell id="LZZ5D7f-CGiOrj9U7sB5-68" value="Manutenção" style="rounded=1;whiteSpace=wrap;html=1;" vertex="1" parent="1">
          <mxGeometry y="930" width="120" height="60" as="geometry" />
        </mxCell>
        <mxCell id="LZZ5D7f-CGiOrj9U7sB5-69" value="" style="endArrow=none;html=1;rounded=0;" edge="1" parent="1">
          <mxGeometry width="50" height="50" relative="1" as="geometry">
            <mxPoint x="640" y="40" as="sourcePoint" />
            <mxPoint x="640" y="963.2000732421875" as="targetPoint" />
          </mxGeometry>
        </mxCell>
        <mxCell id="LZZ5D7f-CGiOrj9U7sB5-70" value="" style="endArrow=none;html=1;rounded=0;" edge="1" parent="1">
          <mxGeometry width="50" height="50" relative="1" as="geometry">
            <mxPoint x="480" y="40" as="sourcePoint" />
            <mxPoint x="480" y="963.2000732421875" as="targetPoint" />
          </mxGeometry>
        </mxCell>
        <mxCell id="LZZ5D7f-CGiOrj9U7sB5-71" value="" style="endArrow=none;html=1;rounded=0;" edge="1" parent="1">
          <mxGeometry width="50" height="50" relative="1" as="geometry">
            <mxPoint x="320" y="60" as="sourcePoint" />
            <mxPoint x="320" y="983.2000732421875" as="targetPoint" />
          </mxGeometry>
        </mxCell>
        <mxCell id="LZZ5D7f-CGiOrj9U7sB5-72" value="" style="endArrow=none;html=1;rounded=0;" edge="1" parent="1">
          <mxGeometry width="50" height="50" relative="1" as="geometry">
            <mxPoint x="160" y="88.4" as="sourcePoint" />
            <mxPoint x="160" y="1011.6000732421875" as="targetPoint" />
          </mxGeometry>
        </mxCell>
        <mxCell id="LZZ5D7f-CGiOrj9U7sB5-74" value="QA" style="rounded=1;whiteSpace=wrap;html=1;" vertex="1" parent="1">
          <mxGeometry x="680" width="120" height="60" as="geometry" />
        </mxCell>
        <mxCell id="LZZ5D7f-CGiOrj9U7sB5-75" value="Backend" style="rounded=1;whiteSpace=wrap;html=1;" vertex="1" parent="1">
          <mxGeometry x="500" width="120" height="60" as="geometry" />
        </mxCell>
        <mxCell id="LZZ5D7f-CGiOrj9U7sB5-76" value="Debugger" style="rounded=1;whiteSpace=wrap;html=1;" vertex="1" parent="1">
          <mxGeometry x="340" width="120" height="60" as="geometry" />
        </mxCell>
        <mxCell id="LZZ5D7f-CGiOrj9U7sB5-77" value="Frontend" style="rounded=1;whiteSpace=wrap;html=1;" vertex="1" parent="1">
          <mxGeometry x="180" width="120" height="60" as="geometry" />
        </mxCell>
        <mxCell id="LZZ5D7f-CGiOrj9U7sB5-78" style="edgeStyle=orthogonalEdgeStyle;rounded=0;orthogonalLoop=1;jettySize=auto;html=1;exitX=0.5;exitY=1;exitDx=0;exitDy=0;" edge="1" parent="1" source="LZZ5D7f-CGiOrj9U7sB5-76" target="LZZ5D7f-CGiOrj9U7sB5-76">
          <mxGeometry relative="1" as="geometry" />
        </mxCell>
        <mxCell id="LZZ5D7f-CGiOrj9U7sB5-79" value="Fullstack" style="rounded=1;whiteSpace=wrap;html=1;" vertex="1" parent="1">
          <mxGeometry x="20" width="120" height="60" as="geometry" />
        </mxCell>
      </root>
    </mxGraphModel>
  </diagram>
</mxfile>
